<?xml version="1.0" standalone="no"?><!DOCTYPE svg PUBLIC "-//W3C//DTD SVG 1.1//EN" "http://www.w3.org/Graphics/SVG/1.1/DTD/svg11.dtd"><svg t="1767535840074" class="icon" viewBox="0 0 1024 1024" version="1.1" xmlns="http://www.w3.org/2000/svg" p-id="8235" xmlns:xlink="http://www.w3.org/1999/xlink" width="256" height="256"><path d="M542.208 162.304h91.648c22.016 0 36.352 14.848 36.352 36.352v128c0 69.632-58.368 128-128 128s-128-58.368-128-128v-36.352c0-69.12 58.368-128 128-128z" fill="#FDEDEE" p-id="8236"></path><path d="M505.344 509.952c-120.832 0-219.648-98.816-219.648-219.648v-36.352C286.208 133.12 385.024 34.304 505.344 34.304h146.432c40.448 0 73.216 32.768 73.216 73.216v182.784c0 120.832-98.816 219.648-219.648 219.648z m0-420.864c-91.648 0-164.352 73.216-164.352 164.352v36.352c0 91.648 73.216 164.352 164.352 164.352s164.352-73.216 164.352-164.352V107.52c0-10.752-7.168-18.432-18.432-18.432H505.344z" fill="#262626" p-id="8237"></path><path d="M308.224 711.168h457.216c58.368 0 109.568 32.768 135.168 87.552l18.432 40.448c18.432 47.616 0 98.816-47.616 120.832-10.752 3.584-25.6 7.168-36.352 7.168H257.024c-54.784 0-98.816-44.032-98.816-98.816 0-10.752 0-18.432 3.584-29.184l7.168-22.016c18.432-62.464 73.216-105.984 139.264-105.984z" fill="#FDEDEE" p-id="8238"></path><path d="M808.96 985.088H201.728C114.176 985.088 40.96 912.384 40.96 824.32c0-14.848 3.584-29.184 7.168-40.448l10.752-40.448c25.6-95.232 113.152-160.768 211.968-160.768h467.968c98.816 0 186.368 66.048 211.968 160.768l10.752 40.448c10.752 40.448 7.168 83.968-14.848 120.832-22.016 36.352-54.784 61.952-95.232 73.216-13.312 3.584-27.648 7.168-42.496 7.168zM271.36 641.536c-73.216 0-138.752 47.616-157.184 117.248l-10.752 40.448c-3.584 7.168-3.584 18.432-3.584 29.184 0 58.368 47.616 105.984 105.984 105.984h607.232c10.752 0 18.432 0 29.184-3.584 25.6-7.168 47.616-25.6 61.952-47.616 14.848-25.6 18.432-51.2 10.752-80.384l-10.752-40.448c-18.432-73.216-83.968-120.832-157.184-120.832H271.36z" fill="#262626" p-id="8239"></path><path d="M616.96 679.424c0 1.536-0.512 4.096-1.024 7.68s-1.536 7.168-2.56 11.264-1.536 9.216-2.56 14.336c-0.512 5.12-1.024 10.24-1.024 15.872 0 5.12 0.512 9.728 1.024 14.848s1.536 9.728 2.56 13.824 1.536 8.192 2.56 11.776c0.512 3.584 1.024 6.656 1.024 8.704 0 2.048-1.024 3.584-2.56 5.12s-3.584 2.048-6.656 2.56-5.632 0.512-8.704 0c-3.072-0.512-6.144-1.536-9.216-2.56-9.216-4.608-19.456-10.24-30.208-15.872-10.752-5.632-20.992-11.264-31.232-16.896-1.024 2.048-3.072 3.584-5.12 4.608-2.048 1.024-4.608 2.048-7.168 2.048h-28.16c-2.56 0-5.12-0.512-7.168-2.048s-4.096-2.56-5.12-4.608c-10.24 5.632-20.992 11.264-31.232 16.896s-20.48 10.752-30.208 15.872c-3.072 1.536-6.144 2.56-9.216 2.56-3.072 0.512-6.144 0.512-8.704 0s-4.608-1.536-6.656-2.56c-1.536-1.024-2.56-3.072-2.56-5.12s0.512-5.12 1.024-8.704 1.536-7.68 2.56-11.776c1.024-4.608 1.536-9.216 2.56-13.824 0.512-5.12 1.024-9.728 1.024-14.848s-0.512-10.24-1.024-15.872c-0.512-5.12-1.536-9.728-2.56-14.336s-1.536-8.192-2.56-11.264c-0.512-3.072-1.024-5.632-1.024-7.68 0-4.608 2.048-7.68 6.144-9.216 4.096-2.048 9.728-1.024 16.896 2.048 11.264 5.632 22.528 11.264 33.28 16.896 11.264 5.632 21.504 11.264 31.744 16.384 1.024-2.048 3.072-3.584 5.12-4.608 2.048-1.024 4.608-2.048 7.168-2.048h28.16c2.56 0 5.12 0.512 7.168 2.048 2.048 1.024 3.584 2.56 5.12 4.608 10.24-5.12 20.992-10.752 31.744-16.384 11.264-5.632 22.016-11.264 33.28-16.896 6.656-3.584 12.288-4.096 16.896-2.048 5.12 2.048 7.168 5.12 7.168 9.216z" fill="#FF3E49" p-id="8240"></path></svg>